<?xml version="1.0" encoding="UTF-8"?>
<!DOCTYPE svg PUBLIC "-//W3C//DTD SVG 1.1//EN" "http://www.w3.org/Graphics/SVG/1.1/DTD/svg11.dtd">
<svg xmlns="http://www.w3.org/2000/svg" xmlns:xlink="http://www.w3.org/1999/xlink" version="1.1" width="101px" height="611px" viewBox="-0.5 -0.5 101 611" style="background-color: rgb(255, 255, 255);">
	<defs>
		<linearGradient x1="0%" y1="0%" x2="0%" y2="100%" id="mx-gradient-fff2cc-1-ffd966-1-s-0">
			<stop offset="0%" style="stop-color: rgb(255, 242, 204); stop-opacity: 1;"/>
			<stop offset="100%" style="stop-color: rgb(255, 217, 102); stop-opacity: 1;"/>
		</linearGradient>
	</defs>
	<g>
		<path d="M 25 0 L 75 0 L 100 25 L 100 75 L 75 100 L 25 100 L 0 75 L 0 25 Z" fill="url(#mx-gradient-fff2cc-1-ffd966-1-s-0)" stroke="#d6b656" stroke-miterlimit="10" pointer-events="all"/>
		<path d="M 25 130 L 75 130 L 100 155 L 100 205 L 75 230 L 25 230 L 0 205 L 0 155 Z" fill="#d5e8d4" stroke="#82b366" stroke-miterlimit="10" pointer-events="all"/>
		<path d="M 25 250 L 75 250 L 100 275 L 100 325 L 75 350 L 25 350 L 0 325 L 0 275 Z" fill="#fff2cc" stroke="#d6b656" stroke-miterlimit="10" pointer-events="all"/>
		<path d="M 25 380 L 75 380 L 100 405 L 100 455 L 75 480 L 25 480 L 0 455 L 0 405 Z" fill="#ffe6cc" stroke="#d79b00" stroke-miterlimit="10" pointer-events="all"/>
		<path d="M 25 510 L 75 510 L 100 535 L 100 585 L 75 610 L 25 610 L 0 585 L 0 535 Z" fill="#f8cecc" stroke="#b85450" stroke-miterlimit="10" pointer-events="all"/>
	</g>
</svg>